<svg width="54" height="54" viewBox="0 0 54 54" fill="none" xmlns="http://www.w3.org/2000/svg" version="1.1" xmlns:xlink="http://www.w3.org/1999/xlink" transform="matrix(-1,0,0,-1,0,0)">
<g clip-path="url(#clip0_52_51)">
<path d="M26.9714 53.2039C19.7402 53.2039 13.1935 50.2728 8.4544 45.5336C3.71528 40.7945 0.78418 34.2478 0.78418 27.0166C0.78418 19.7854 3.71528 13.2387 8.4544 8.49955C13.1935 3.76086 19.7402 0.829765 26.9714 0.829765C34.2031 0.829765 40.7498 3.76086 45.4889 8.49955C50.228 13.2387 53.1591 19.7854 53.1591 27.0166C53.1591 34.2482 50.228 40.7949 45.4889 45.5336C40.7498 50.2728 34.2031 53.2039 26.9714 53.2039ZM22.7365 35.2319C21.997 35.9923 22.0137 37.2083 22.774 37.9478C23.5344 38.6873 24.7504 38.6707 25.4903 37.9103L34.7985 28.3114L33.4218 26.9723L34.8045 28.3132C35.5452 27.5494 35.5261 26.3304 34.7627 25.5896C34.7401 25.5683 34.718 25.5474 34.6954 25.5274L25.4903 16.1156C24.7508 15.3553 23.5348 15.3386 22.774 16.0781C22.0137 16.8172 21.997 18.0336 22.7365 18.794L30.7409 26.9778L22.7365 35.2319ZM11.1779 42.8101C15.2198 46.8519 20.8036 49.3517 26.9714 49.3517C33.1392 49.3517 38.7235 46.8519 42.7649 42.8101C46.8072 38.7683 49.3074 33.1844 49.3074 27.0162C49.3074 20.8484 46.8076 15.2645 42.7649 11.2227C38.7235 7.18084 33.1392 4.68064 26.9714 4.68064C20.8036 4.68064 15.2198 7.18041 11.1779 11.2227C7.13611 15.2645 4.63634 20.8488 4.63634 27.0166C4.63634 33.1844 7.13611 38.7683 11.1779 42.8101Z" fill="#30343B"></path>
</g>
<defs>
<clipPath id="clip0_52_51">
<rect width="52.3749" height="52.3745" fill="white" transform="matrix(1 0 0 -1 0.78418 53.2039)"></rect>
</clipPath>
</defs>
</svg>